<svg xmlns="http://www.w3.org/2000/svg" id="Layer_1" height="512" viewBox="0 0 512 512" width="512"><g><path d="m506.8 204.395c-3.37-16.441-8.39-32.611-14.92-48.062-1.851-4.374-3.843-8.696-5.941-12.971.11-3.441-.378-6.912-1.477-10.285-2.451-7.523-7.612-13.421-14.046-16.979-.709-1.085-1.411-2.174-2.136-3.247-2.333-3.454-4.757-6.853-7.261-10.195.11-7.824-2.806-15.683-8.763-21.64-4.984-4.984-11.302-7.837-17.815-8.573-10.895-10.586-22.744-20.256-35.311-28.745-13.68-9.24-28.31-17.181-43.48-23.601-15.45-6.53-31.62-11.55-48.06-14.921-33.73-6.9-69.45-6.9-103.18 0-16.44 3.37-32.61 8.391-48.06 14.921-15.17 6.421-29.8 14.361-43.48 23.601-13.56 9.161-26.3 19.681-37.89 31.262-11.58 11.589-22.1 24.33-31.26 37.89-9.24 13.681-17.18 28.311-23.6 43.482-6.54 15.451-11.55 31.622-14.92 48.062-3.45 16.862-5.2 34.223-5.2 51.594 0 17.37 1.75 34.732 5.2 51.592 3.37 16.441 8.38 32.611 14.92 48.062 6.42 15.171 14.36 29.801 23.6 43.482 9.16 13.561 19.68 26.301 31.26 37.892 11.59 11.58 24.33 22.101 37.89 31.261 13.68 9.241 28.31 17.181 43.48 23.601 15.45 6.54 31.62 11.55 48.06 14.921 16.86 3.45 34.22 5.2 51.59 5.2l.03-.05v.051c26.34 0 52.32-3.99 77.22-11.861 24.1-7.62 46.91-18.781 67.78-33.161 4.54-3.131 5.69-9.371 2.57-13.911-1.87-2.71-4.95-4.33-8.25-4.33-2.02 0-3.97.61-5.65 1.76l-.01.01c-39.41 27.141-85.64 41.492-133.69 41.492-63.03 0-122.29-24.551-166.88-69.123-44.57-44.592-69.11-103.856-69.12-166.888.01-63.033 24.55-122.296 69.12-166.888 44.59-44.573 103.85-69.124 166.88-69.124 42.431 0 83.146 11.142 118.834 32.012-5.905 3.728-10.284 9.346-12.463 16.074-1.691 5.218-5.833 23.382-9.335 42.245-28.711-19.233-61.964-29.328-97.036-29.328-55.976 0-108.483 26.803-141.414 71.922-7.997 1.284-15.708 5.017-21.895 11.203-13.145 13.146-15.237 33.166-6.195 48.214-.228.889-.431 1.785-.644 2.679-8.447 11.323-13.291 21.313-15.053 30.937-2.62 14.317 1.658 27.661 12.706 39.706 5.621 33.005 20.394 63.239 42.973 88.041-12.868 23.446-14.764 34.319-7.979 41.105 2.541 2.54 5.647 3.87 9.765 3.87 7.512 0 18.401-4.441 35.318-14.017 27.704 17.262 59.52 26.357 92.416 26.357 96.495 0 175-78.509 175-175.008 0-25.689-5.677-51.129-16.488-74.233 21.604-3.726 44.698-8.907 50.697-10.85 3.346-1.084 6.417-2.712 9.119-4.801 11.586 28.141 17.674 58.545 17.674 89.884 0 48.092-14.38 94.364-41.57 133.817-1.52 2.2-2.09 4.86-1.61 7.48.49 2.63 1.96 4.91 4.16 6.43 1.68 1.15 3.64 1.77 5.67 1.77 3.29 0 6.37-1.62 8.24-4.33 14.41-20.891 25.59-43.712 33.22-67.843 7.89-24.932 11.89-50.953 11.89-77.324 0-17.371-1.75-34.732-5.2-51.593zm-82.829-109.236c1.95-1.95 4.51-2.924 7.071-2.924s5.122.975 7.071 2.924c3.899 3.899 3.899 10.244 0 14.143-3.142 3.143-19.47 16.863-36.718 29.851-10.655 8.023-18.619 13.499-24.51 17.237 3.738-5.891 9.214-13.855 17.237-24.511 12.987-17.25 26.707-33.578 29.849-36.72zm-52.462 25.386c3.723-21.289 8.518-42.087 9.888-46.319.821-2.536 2.581-4.598 4.955-5.807 1.425-.727 2.97-1.094 4.527-1.094 1.046 0 2.098.166 3.122.5 5.27 1.717 8.171 7.394 6.467 12.653-.881 2.72-4.633 11.82-9.714 23.131-5.366 6.726-19.552 25.651-21.024 27.716.509-3.3 1.097-6.88 1.779-10.78zm-115.509-19.565c34.14 0 66.328 10.801 93.367 31.27-1.167 8.009-1.959 14.985-2.366 20.852-23.837-10.501-52.733-6.02-72.23 13.477-5.59 5.59-19.139 22.28-36.113 44.417-.318-20.84-8.058-39.799-22.223-53.964-12.617-12.616-26.722-17.602-41.918-14.822-10.095 1.848-20.591 7.08-32.608 16.314-1.424-.917-2.897-1.731-4.408-2.442 29.318-34.743 72.592-55.102 118.499-55.102zm-118.891 254.478c-12.978-15.46-22.696-33.078-28.766-52.109 10.188 4.473 21.306 6.702 32.659 6.702 9.654 0 19.473-1.605 29.026-4.785-13.15 19.099-24.315 36.118-32.919 50.192zm-30.275-177.21c7.647-7.649 19.896-7.844 27.302-.438l31.054 31.056c1.953 1.953 4.512 2.929 7.071 2.929s5.119-.977 7.071-2.929c3.905-3.905 3.906-10.237 0-14.143l-22.425-22.426c22.198-16.061 34.109-12.397 45.385-1.121 11.63 11.63 17.403 27.833 16.255 45.623-1.179 18.276-9.463 35.976-23.327 49.84-13.863 13.864-31.563 22.149-49.838 23.328-17.79 1.148-33.992-4.626-45.621-16.257-11.275-11.276-14.94-23.188 1.121-45.387l22.425 22.426c1.953 1.953 4.512 2.929 7.071 2.929s5.119-.977 7.071-2.929c3.905-3.905 3.905-10.237 0-14.143l-31.052-31.053c-3.561-3.561-5.492-8.34-5.438-13.458.056-5.196 2.142-10.114 5.875-13.847zm78.13 140.571 7.346 6.612c1.84 1.65 4.22 2.56 6.69 2.56 2.83 0 5.54-1.21 7.43-3.31 1.79-1.99 2.7-4.551 2.56-7.221-.15-2.67-1.32-5.12-3.3-6.9l-9.216-8.294c2.443-3.476 46.761-64.509 62.767-85.219l8.559 8.88c1.9 1.97 4.46 3.06 7.2 3.06 2.6 0 5.07-.99 6.94-2.8 3.97-3.83 4.09-10.17.26-14.14l-10.499-10.899c8.04-10.092 14.135-17.345 17.213-20.424 8.774-8.774 20.295-13.16 31.82-13.16 11.522 0 23.048 4.387 31.82 13.16 8.499 8.499 13.18 19.801 13.18 31.821s-4.681 23.321-13.18 31.821c-6.662 6.663-32.715 27.345-64.83 51.35l-14.863-14.007c-1.87-1.75-4.3-2.72-6.86-2.72-2.78 0-5.37 1.12-7.28 3.14-3.78 4.02-3.59 10.361.42 14.141l12.258 11.546c-9.65 7.093-19.615 14.314-29.585 21.412-62.56 44.538-91.259 60.517-103.966 66.24 4.826-10.692 16.914-32.703 47.116-76.649zm71.036 92.176c-25.605 0-50.458-6.232-72.753-18.107 17.345-10.823 38.572-25.055 62.332-41.815 54.583-38.502 109.928-81.375 121.117-92.565 12.277-12.277 19.039-28.601 19.039-45.964 0-9.201-1.916-18.101-5.528-26.271 4.011-.279 8.537-.737 13.559-1.373 11.28 21.84 17.235 46.327 17.235 71.087-.001 85.472-69.534 155.008-155.001 155.008zm208.853-264.072c-1.209 2.374-3.272 4.133-5.807 4.955-4.231 1.371-25.03 6.166-46.317 9.888-3.9.682-7.48 1.27-10.778 1.78 2.065-1.472 20.989-15.659 27.715-21.025 11.309-5.081 20.409-8.833 23.128-9.714 1.021-.331 2.058-.488 3.078-.488 4.235 0 8.19 2.709 9.574 6.955.831 2.55.62 5.266-.593 7.649z"></path><circle cx="429.89" cy="430" r="10"></circle></g></svg>